<?xml version="1.0" encoding="UTF-8" standalone="no"?>
<!-- Created with Inkscape (http://www.inkscape.org/) -->

<svg
   width="24"
   height="24"
   viewBox="0 0 6.3499999 6.3499998"
   version="1.1"
   id="svg1"
   inkscape:version="1.3 (0e150ed6c4, 2023-07-21)"
   sodipodi:docname="icon.svg"
   xmlns:inkscape="http://www.inkscape.org/namespaces/inkscape"
   xmlns:sodipodi="http://sodipodi.sourceforge.net/DTD/sodipodi-0.dtd"
   xmlns="http://www.w3.org/2000/svg"
   xmlns:svg="http://www.w3.org/2000/svg">
  <sodipodi:namedview
     id="namedview1"
     pagecolor="#ffffff"
     bordercolor="#000000"
     borderopacity="0.25"
     inkscape:showpageshadow="2"
     inkscape:pageopacity="0.0"
     inkscape:pagecheckerboard="0"
     inkscape:deskcolor="#d1d1d1"
     inkscape:document-units="px"
     showgrid="true"
     inkscape:zoom="27.129691"
     inkscape:cx="3.2805386"
     inkscape:cy="10.228646"
     inkscape:window-width="2490"
     inkscape:window-height="1371"
     inkscape:window-x="2630"
     inkscape:window-y="32"
     inkscape:window-maximized="1"
     inkscape:current-layer="layer1">
    <inkscape:grid
       id="grid1"
       units="px"
       originx="0"
       originy="0"
       spacingx="0.26458333"
       spacingy="0.26458332"
       empcolor="#0099e5"
       empopacity="0.30196078"
       color="#0099e5"
       opacity="0.14901961"
       empspacing="5"
       dotted="false"
       gridanglex="30"
       gridanglez="30"
       visible="true" />
  </sodipodi:namedview>
  <defs
     id="defs1" />
  <g
     inkscape:label="Layer 1"
     inkscape:groupmode="layer"
     id="layer1">
    <circle
       id="XMLID_441_-2"
       class="st0"
       cx="3.1662657"
       cy="3.1662657"
       style="fill:#ffffff;stroke-width:0.0726209"
       r="3.1662657" />
    <g
       id="XMLID_435_-2"
       transform="matrix(0.07680415,0,0,0.07680415,-3.645547,-40.93749)">
      <g
         id="XMLID_440_-5">
        <path
           id="path43-6"
           inkscape:connector-curvature="0"
           class="st1"
           d="m 122,568.8 c -1.2,0 -2.4,0.7 -3.3,1.9 l -11.4,15.1 c -1.9,2.5 -4.6,3.9 -7.4,3.9 v 0 0 c -2.8,0 -5.5,-1.4 -7.4,-3.9 L 81.1,570.7 c -0.9,-1.2 -2.1,-1.9 -3.3,-1.9 -1.2,0 -2.4,0.7 -3.3,1.9 l -11.4,15.1 c -1.9,2.5 -4.5,3.9 -7.3,3.9 5.8,12.3 18.3,20.8 32.8,20.8 20,0 36.3,-16.2 36.3,-36.3 0,-1.4 -0.1,-2.8 -0.3,-4.2 -0.7,-0.8 -1.6,-1.2 -2.6,-1.2 z"
           style="fill:#709c49" />
      </g>
      <path
         id="XMLID_437_-9"
         inkscape:connector-curvature="0"
         class="st2"
         d="m 88.7,537.9 c -20,0 -36.3,16.2 -36.3,36.3 0,3.2 0.5,6.3 1.2,9.2 0.7,0.5 1.4,0.8 2.2,0.8 1.2,0 2.4,-0.7 3.3,-1.9 l 11.4,-15.1 c 1.9,-2.5 4.6,-3.9 7.4,-3.9 2.8,0 5.5,1.4 7.4,3.9 l 11,14.5 0.5,0.6 c 0.9,1.2 2.1,1.8 3.2,1.9 1.2,0 2.3,-0.7 3.2,-1.9 l 0.5,-0.6 11,-14.5 c 1.9,-2.5 4.6,-3.9 7.4,-3.9 0.4,0 0.9,0 1.3,0.1 -4.6,-14.8 -18.4,-25.5 -34.7,-25.5 z m 12.1,23 c -2.1,0 -3.8,-1.7 -3.8,-3.8 0,-2.1 1.7,-3.8 3.8,-3.8 2.1,0 3.8,1.7 3.8,3.8 0,2.1 -1.7,3.8 -3.8,3.8 z"
         style="fill:#6dabe4" />
    </g>
  </g>
</svg>
